<?xml version="1.0" encoding="UTF-8" standalone="no"?>
<!-- Created with Inkscape (http://www.inkscape.org/) -->

<svg
   width="297mm"
   height="420mm"
   viewBox="0 0 1122.5197 1587.4016"
   version="1.1"
   id="svg1"
   xml:space="preserve"
   inkscape:export-filename="mapa de bits.pdf"
   inkscape:export-xdpi="96"
   inkscape:export-ydpi="96"
   inkscape:version="1.4.2 (f4327f4, 2025-05-13)"
   sodipodi:docname="landing_markerA3.svg"
   xmlns:inkscape="http://www.inkscape.org/namespaces/inkscape"
   xmlns:sodipodi="http://sodipodi.sourceforge.net/DTD/sodipodi-0.dtd"
   xmlns="http://www.w3.org/2000/svg"
   xmlns:svg="http://www.w3.org/2000/svg"><sodipodi:namedview
     id="namedview1"
     pagecolor="#ffffff"
     bordercolor="#000000"
     borderopacity="0.25"
     inkscape:showpageshadow="2"
     inkscape:pageopacity="0.0"
     inkscape:pagecheckerboard="0"
     inkscape:deskcolor="#d1d1d1"
     inkscape:document-units="mm"
     inkscape:zoom="0.48693448"
     inkscape:cx="15.402483"
     inkscape:cy="539.0869"
     inkscape:window-width="1920"
     inkscape:window-height="991"
     inkscape:window-x="-9"
     inkscape:window-y="-9"
     inkscape:window-maximized="1"
     inkscape:current-layer="layer1" /><defs
     id="defs1" /><g
     inkscape:label="Camada 1"
     inkscape:groupmode="layer"
     id="layer1"><g
       id="g4"
       transform="matrix(1.4173229,0,0,1.4173229,433.7008,413.93371)"><path
         style="fill:#ffffff;stroke:none"
         d="M 0,0 V 10 H 20 V 0 Z"
         id="path1" /><path
         style="fill:#000000;stroke:none"
         d="M 20,0 V 10 H 0 V 20 H 10 V 30 H 0 V 40 H 10 V 60 H 0 V 70 H 10 V 80 H 0 V 90 H 10 V 80 H 20 V 90 H 30 V 80 H 60 V 90 H 80 V 70 H 90 V 50 H 80 V 40 H 90 V 10 H 80 V 0 H 70 V 10 H 30 V 0 Z"
         id="path2" /><path
         style="fill:#ffffff;stroke:none"
         d="M 30,0 V 10 H 70 V 0 H 30 M 80,0 V 10 H 90 V 0 H 80 M 0,20 V 30 H 10 V 20 H 0 m 20,0 V 70 H 70 V 20 H 20 M 0,40 V 60 H 10 V 40 Z"
         id="path3" /><path
         style="fill:#000000;stroke:none"
         d="M 30,40 V 50 H 40 V 60 H 50 V 50 H 40 V 40 Z"
         id="path4" /><path
         style="fill:#ffffff;stroke:none"
         d="M 80,40 V 50 H 90 V 40 H 80 M 0,70 V 80 H 10 V 70 H 0 m 80,0 V 90 H 90 V 70 H 80 M 10,80 V 90 H 20 V 80 H 10 m 20,0 V 90 H 60 V 80 Z"
         id="path5" /></g><g
       id="g5"
       transform="matrix(2.8346457,0,0,2.8346457,306.14175,158.8156)"><path
         style="fill:#ffffff;stroke:none"
         d="M 0,0 V 30 H 10 V 10 H 20 V 0 Z"
         id="path1-6" /><path
         style="fill:#000000;stroke:none"
         d="M 20,0 V 10 H 10 V 30 H 0 V 50 H 10 V 60 H 0 V 90 H 10 V 80 H 20 V 90 H 30 V 80 H 40 V 90 H 50 V 80 H 60 V 90 H 90 V 80 H 80 V 0 H 70 V 10 H 30 V 0 Z"
         id="path2-1" /><path
         style="fill:#ffffff;stroke:none"
         d="M 30,0 V 10 H 70 V 0 H 30 M 80,0 V 80 H 90 V 0 H 80 M 20,20 V 70 H 70 V 20 Z"
         id="path3-4" /><path
         style="fill:#000000;stroke:none"
         d="M 50,30 V 40 H 40 V 50 H 30 V 60 H 40 V 50 H 60 V 30 Z"
         id="path4-2" /><path
         style="fill:#ffffff;stroke:none"
         d="M 0,50 V 60 H 10 V 50 H 0 M 10,80 V 90 H 20 V 80 H 10 m 20,0 V 90 H 40 V 80 H 30 m 20,0 V 90 H 60 V 80 Z"
         id="path5-3" /></g><g
       id="g6"
       transform="matrix(5.6692914,0,0,5.6692914,561.25986,31.256544)"><path
         style="fill:#ffffff;stroke:none"
         d="M 0,0 V 30 H 10 V 10 H 20 V 0 Z"
         id="path1-2" /><path
         style="fill:#000000;stroke:none"
         d="M 20,0 V 10 H 10 V 30 H 0 V 40 H 10 V 50 H 0 V 70 H 10 V 80 H 20 V 90 H 30 V 80 H 50 V 90 H 80 V 80 H 90 V 60 H 80 V 50 H 90 V 40 H 80 V 10 H 90 V 0 H 80 V 10 H 30 V 0 Z"
         id="path2-2" /><path
         style="fill:#ffffff;stroke:none"
         d="M 30,0 V 10 H 80 V 0 H 30 M 80,10 V 40 H 90 V 10 H 80 M 20,20 V 70 H 70 V 20 Z"
         id="path3-1" /><path
         style="fill:#000000;stroke:none"
         d="M 30,30 V 40 H 50 V 50 H 60 V 30 Z"
         id="path4-6" /><path
         style="fill:#ffffff;stroke:none"
         d="M 0,40 V 50 H 10 V 40 H 0 M 80,50 V 60 H 90 V 50 H 80 M 0,70 V 90 H 20 V 80 H 10 V 70 H 0 M 30,80 V 90 H 50 V 80 H 30 m 50,0 V 90 H 90 V 80 Z"
         id="path5-8" /></g><g
       id="g7"
       transform="matrix(11.338583,0,0,11.338583,51.023617,541.49277)"><path
         style="fill:#ffffff;stroke:none"
         d="M 0,0 V 10 H 20 V 0 Z"
         id="path1-5" /><path
         style="fill:#000000;stroke:none"
         d="M 20,0 V 10 H 0 V 30 H 10 V 40 H 0 V 80 H 10 V 90 H 20 V 80 H 40 V 90 H 90 V 80 H 80 V 70 H 90 V 50 H 80 V 40 H 90 V 30 H 80 V 10 H 30 V 0 Z"
         id="path2-7" /><path
         style="fill:#ffffff;stroke:none"
         d="M 30,0 V 10 H 80 V 30 H 90 V 0 H 30 M 20,20 V 70 H 70 V 20 H 20 M 0,30 V 40 H 10 V 30 Z"
         id="path3-6" /><path
         style="fill:#000000;stroke:none"
         d="M 30,30 V 50 H 40 V 60 H 60 V 50 H 50 V 40 H 60 V 30 Z"
         id="path4-1" /><path
         style="fill:#ffffff;stroke:none"
         d="M 80,40 V 50 H 90 V 40 H 80 m 0,30 V 80 H 90 V 70 H 80 M 0,80 V 90 H 10 V 80 H 0 m 20,0 V 90 H 40 V 80 Z"
         id="path5-89" /></g></g></svg>
